<?xml version="1.0" encoding="utf-8"?>
<!-- Generator: Adobe Illustrator 25.0.1, SVG Export Plug-In . SVG Version: 6.00 Build 0)  -->
<svg version="1.1" id="Ebene_1" xmlns="http://www.w3.org/2000/svg" xmlns:xlink="http://www.w3.org/1999/xlink" x="0px" y="0px"
	 viewBox="0 0 544.25 116.22" style="enable-background:new 0 0 544.25 116.22;" xml:space="preserve">
<style type="text/css">
	.st0{fill:#474847;}
	.st1{fill:#C47552;}
</style>
<path class="st0" d="M217.76,50.16h-29.61v4.69c0,5.14,3.13,7.82,7.82,7.82h25.36v7.82h-25.36c-8.71,0-15.64-5.81-15.64-15.64V37.76
	c0-9.83,6.93-15.64,15.64-15.64h12.29c8.94,0,15.64,5.92,15.64,15.64v6.14C223.91,47.82,220.67,50.16,217.76,50.16z M216.09,37.76
	c0-5.25-2.9-7.82-7.82-7.82h-12.29c-4.69,0-7.82,2.68-7.82,7.82v4.58h27.93V37.76z M347.9,70.5h-12.29
	c-8.94,0-15.64-5.92-15.64-15.64V37.76V0.33h7.82v23.57c2.23-1.23,4.92-1.79,7.82-1.79h12.29c8.71,0,15.64,5.81,15.64,15.64v17.09
	C363.54,64.69,356.62,70.5,347.9,70.5z M355.72,37.76c0-5.14-3.13-7.82-7.82-7.82h-12.29c-4.92,0-7.82,2.57-7.82,7.82v17.09
	c0,5.25,2.9,7.82,7.82,7.82h12.29c4.69,0,7.82-2.68,7.82-7.82V37.76z M418.18,50.16h-29.61v4.69c0,5.14,3.13,7.82,7.82,7.82h25.36
	v7.82H396.4c-8.71,0-15.64-5.81-15.64-15.64V37.76c0-9.83,6.93-15.64,15.64-15.64h12.29c8.94,0,15.64,5.92,15.64,15.64v6.14
	C424.33,47.82,421.09,50.16,418.18,50.16z M416.51,37.76c0-5.25-2.9-7.82-7.82-7.82H396.4c-4.69,0-7.82,2.68-7.82,7.82v4.58h27.93
	V37.76z M471.02,70.5h-15.31c-8.27,0-15.64-4.47-15.64-14.08c0-9.16,5.59-13.18,13.97-14.08c0.22,0,13.74-1.34,17.43-1.79
	c2.23-0.34,4.02-1.01,4.36-3.13c0.11-0.67,0-1.12,0-1.12c-0.45-4.13-3.24-6.37-7.49-6.37h-10.95c-4.69,0-7.26,1.68-8.04,4.8
	l-1.01,3.13l-7.26-2.23l0.78-2.9c2.01-7.93,8.94-10.61,15.53-10.61h10.95c8.94,0,15.42,6.15,15.42,15.64v20
	C483.76,65.69,478.28,70.5,471.02,70.5z M475.94,47.48c-1.12,0.34-2.23,0.67-3.46,0.78c-3.8,0.45-17.54,1.9-17.65,1.9
	c-5.59,0.56-6.93,2.12-6.93,6.26c0,3.91,2.35,6.26,7.82,6.26h15.31c3.24,0,4.92-1.56,4.92-4.92
	C475.94,57.76,475.94,52.4,475.94,47.48z M535.92,40.55v-2.79c0-5.25-2.9-7.82-7.82-7.82h-5.59c-4.69,0-7.82,2.68-7.82,7.82v24.91
	h15.19v7.82h-32.96v-7.82h9.94V37.76c0-9.72,6.7-15.64,15.64-15.64h5.59c8.94,0,15.64,5.92,15.64,15.64v2.79H535.92z"/>
<path class="st0" d="M288.68,21.99h-7.62c-3.84,0-7.32,1.58-9.83,4.12c-2.51-2.54-5.98-4.12-9.83-4.12h-7.62
	c-7.62,0-13.81,6.2-13.81,13.81V70.5h7.97V35.8c0-3.22,2.62-5.84,5.84-5.84h7.62c3.22,0,5.84,2.62,5.84,5.84V70.5h7.97V35.8
	c0-3.22,2.62-5.84,5.84-5.84h7.62c3.22,0,5.84,2.62,5.84,5.84V70.5h7.97V35.8C302.49,28.19,296.3,21.99,288.68,21.99z"/>
<g>
	<path class="st1" d="M88.85,71.84c0-0.98-0.39-1.92-1.09-2.62L76.65,58.11l-5.24,5.24l10.03,10.03v22.65l-10.09,8.31V90.54
		c3.3-1.44,5.61-4.72,5.61-8.55c0-5.14-4.18-9.32-9.32-9.32c-5.14,0-9.32,4.18-9.32,9.32c0,3.82,2.31,7.11,5.61,8.55v21.64
		c0,1.43,0.83,2.74,2.12,3.35c0.5,0.24,1.04,0.35,1.58,0.35c0.84,0,1.68-0.29,2.36-0.84l17.5-14.41c0.85-0.7,1.35-1.75,1.35-2.86
		V71.84z M67.65,78.68c1.83,0,3.32,1.49,3.32,3.32s-1.49,3.32-3.32,3.32s-3.32-1.49-3.32-3.32S65.82,78.68,67.65,78.68z"/>
	<path class="st1" d="M50.92,56.34c0-5.14-4.18-9.32-9.32-9.32s-9.32,4.18-9.32,9.32c0,5.14,4.18,9.32,9.32,9.32
		S50.92,61.48,50.92,56.34z M41.6,59.66c-1.83,0-3.32-1.49-3.32-3.32s1.49-3.32,3.32-3.32s3.32,1.49,3.32,3.32
		S43.43,59.66,41.6,59.66z"/>
	<path class="st1" d="M93.69,65.66c5.14,0,9.32-4.18,9.32-9.32c0-5.14-4.18-9.32-9.32-9.32s-9.32,4.18-9.32,9.32
		C84.37,61.48,88.55,65.66,93.69,65.66z M93.69,53.03c1.83,0,3.32,1.49,3.32,3.32s-1.49,3.32-3.32,3.32s-3.32-1.49-3.32-3.32
		S91.86,53.03,93.69,53.03z"/>
	<path class="st1" d="M129.95,54.77c7.11-9.65,6.33-23.33-2.4-32.06c-9.62-9.62-25.28-9.62-34.9,0l5.24,5.24
		c6.73-6.73,17.69-6.73,24.42,0c5.83,5.83,6.6,14.83,2.33,21.51l-5.88-5.88c0.42-1.06,0.66-2.21,0.66-3.42
		c0-5.14-4.18-9.32-9.32-9.32s-9.32,4.18-9.32,9.32s4.18,9.32,9.32,9.32c1.21,0,2.36-0.24,3.42-0.66l12.51,12.51V94.4l-12.24,12.24
		H88.82v7.41h26.5c0.98,0,1.92-0.39,2.62-1.08l14.41-14.41c0.7-0.7,1.09-1.64,1.09-2.62V59.79c0-0.98-0.39-1.93-1.08-2.62
		L129.95,54.77z M106.79,40.16c0-1.83,1.49-3.32,3.32-3.32s3.32,1.49,3.32,3.32s-1.49,3.32-3.32,3.32S106.79,41.99,106.79,40.16z"/>
	<path class="st1" d="M54.34,72.89l15.93-15.93c0.7-0.69,1.09-1.64,1.09-2.62l0-29.02c0-2.05-1.66-3.71-3.71-3.71H41.48
		c-9.68-8.52-24.5-8.16-33.74,1.09c-8.73,8.73-9.51,22.41-2.4,32.06l-2.4,2.4c-0.69,0.69-1.08,1.64-1.08,2.62v36.76
		c0,0.98,0.39,1.92,1.09,2.62l15.02,15.02l5.24-5.24L9.26,95.01V61.32l12.51-12.51c1.06,0.42,2.21,0.66,3.42,0.66
		c5.14,0,9.32-4.18,9.32-9.32s-4.18-9.32-9.32-9.32s-9.32,4.18-9.32,9.32c0,1.21,0.24,2.36,0.66,3.42l-5.88,5.88
		c-4.27-6.68-3.5-15.68,2.33-21.51c6.73-6.73,17.69-6.73,24.42,0c0.69,0.69,1.64,1.08,2.62,1.08h23.92l0,23.78L48.01,68.74
		c-0.7,0.7-1.09,1.64-1.09,2.62v26.41c0,0.98,0.39,1.92,1.09,2.62l7.36,7.36l5.24-5.24l-6.27-6.27V72.89z M25.19,36.84
		c1.83,0,3.32,1.49,3.32,3.32s-1.49,3.32-3.32,3.32s-3.32-1.49-3.32-3.32S23.36,36.84,25.19,36.84z"/>
</g>
<g>
	<path class="st0" d="M189.79,114.32h-3.66c-2.59,0-4.65-1.83-4.65-4.69v-0.83h2.33v0.83c0,1.53,0.93,2.36,2.33,2.36h3.66
		c1.46,0,2.33-0.8,2.33-2.33v-2.19c0-1.46-0.03-2.19-4.16-2.19c-4.19,0-6.48-0.76-6.48-5.19v-0.83c0-2.93,2.06-4.65,4.65-4.65h3.66
		c2.69,0,4.65,1.76,4.65,4.65v1.03h-2.33v-1.03c0-1.56-0.86-2.33-2.33-2.33h-3.66c-1.4,0-2.33,0.8-2.33,2.33v0.83
		c0,2.43,0.4,2.86,4.16,2.86c4.45,0,6.48,1,6.48,4.52v2.19C194.44,112.55,192.45,114.32,189.79,114.32z"/>
	<path class="st0" d="M208.57,114.32h-3.66c-2.59,0-4.65-1.73-4.65-4.65v-10.4c0-2.93,2.06-4.65,4.65-4.65h3.66
		c2.66,0,4.65,1.76,4.65,4.65v10.4C213.22,112.55,211.23,114.32,208.57,114.32z M210.89,99.26c0-1.53-0.87-2.33-2.33-2.33h-3.66
		c-1.4,0-2.33,0.8-2.33,2.33v10.4c0,1.53,0.93,2.33,2.33,2.33h3.66c1.46,0,2.33-0.8,2.33-2.33V99.26z"/>
	<path class="st0" d="M221.84,96.93v6.25h7.4v2.33h-7.4v8.81h-2.33V94.6h10.92v2.33H221.84z"/>
	<path class="st0" d="M240.5,96.93v17.39h-2.33V96.93h-5.32V94.6h12.96v2.33H240.5z"/>
	<path class="st0" d="M263.44,109.83c-0.13,2.43-1.03,4.59-3.99,4.59c-1.3,0-2.23-0.4-2.83-1c-0.6,0.6-1.53,1-2.83,1
		c-2.96,0-3.86-2.16-3.99-4.59l-0.76-15.23h2.33l0.76,15.09c0.1,2.03,0.6,2.39,1.66,2.39c1.23,0,1.66-0.47,1.66-2.33v-8.51h2.33
		v8.51c0,1.86,0.43,2.33,1.66,2.33c1.06,0,1.56-0.37,1.66-2.39l0.77-15.09h2.29L263.44,109.83z"/>
	<path class="st0" d="M280.25,114.32l-1.03-5.49h-6.62l-1.13,5.49h-2.36l3.56-17.49c0.23-1.2,0.6-2.23,2.16-2.23h2.26
		c1.76,0,2.06,1.2,2.43,3.19l3.12,16.52H280.25z M277.19,97.63c-0.1-0.6-0.27-0.7-0.83-0.7h-0.76c-0.53,0-0.6,0.03-0.73,0.66
		l-1.79,8.91h5.82L277.19,97.63z"/>
	<path class="st0" d="M299.26,114.32l-2.73-8.64h-5.69v8.64h-2.33V94.6h8.31c2.66,0,4.65,1.76,4.65,4.65v1.76
		c0,2.13-1.06,3.62-2.66,4.29l2.86,9.01H299.26z M299.16,99.26c0-1.53-0.87-2.33-2.33-2.33h-5.98v6.42h5.98
		c1.46,0,2.33-0.8,2.33-2.33V99.26z"/>
	<path class="st0" d="M308.53,114.32V94.6h12.33v2.33h-10.01v6.25h6.85v2.33h-6.85v6.48h10.34v2.33H308.53z"/>
	<path class="st0" d="M348.85,114.32V96.93c-0.17,0.46-3.39,11-3.39,11h-2.19c0,0-2.33-8.08-3.36-11h-0.03v17.39h-2.33V94.6h3.86
		l2.96,9.67l2.89-9.67h3.92v19.71H348.85z"/>
	<path class="st0" d="M367.83,114.32l-1.03-5.49h-6.62l-1.13,5.49h-2.36l3.56-17.49c0.23-1.2,0.6-2.23,2.16-2.23h2.26
		c1.76,0,2.06,1.2,2.43,3.19l3.12,16.52H367.83z M364.77,97.63c-0.1-0.6-0.27-0.7-0.83-0.7h-0.76c-0.53,0-0.6,0.03-0.73,0.66
		l-1.79,8.91h5.82L364.77,97.63z"/>
	<path class="st0" d="M384.41,114.32h-8.38V94.6h8.38c2.66,0,4.65,1.76,4.65,4.65v10.4C389.07,112.55,387.07,114.32,384.41,114.32z
		 M386.74,99.26c0-1.53-0.87-2.33-2.33-2.33h-6.05v15.06h6.05c1.46,0,2.33-0.8,2.33-2.33V99.26z"/>
	<path class="st0" d="M396.44,114.32V94.6h12.33v2.33h-10.01v6.25h6.85v2.33h-6.85v6.48h10.34v2.33H396.44z"/>
	<path class="st0" d="M423.1,114.32v-2.33h4.02V96.93h-4.02V94.6h10.37v2.33h-4.02v15.06h4.02v2.33H423.1z"/>
	<path class="st0" d="M449.14,114.32l-7.05-16.02v16.02h-2.33V94.6h3.26l7.05,16.06V94.6h2.33v19.71H449.14z"/>
	<path class="st0" d="M478.16,114.32h-8.31V94.6h8.21c2.66,0,4.65,1.76,4.65,4.65v1.4c0,1.43-0.5,2.63-1.36,3.42
		c0.93,0.83,1.46,2.03,1.46,3.52v2.06C482.81,112.55,480.82,114.32,478.16,114.32z M480.38,99.26c0-1.53-0.87-2.33-2.33-2.33h-5.88
		v6.05h5.88c1.46,0,2.33-0.8,2.33-2.33V99.26z M480.48,107.6c0-1.53-0.87-2.29-2.33-2.29h-5.98v6.68h5.98c1.46,0,2.33-0.8,2.33-2.33
		V107.6z"/>
	<path class="st0" d="M489.52,114.32V94.6h12.33v2.33h-10.01v6.25h6.85v2.33h-6.85v6.48h10.34v2.33H489.52z"/>
	<path class="st0" d="M519.14,114.32l-2.72-8.64h-5.69v8.64h-2.33V94.6h8.31c2.66,0,4.65,1.76,4.65,4.65v1.76
		c0,2.13-1.06,3.62-2.66,4.29l2.86,9.01H519.14z M519.04,99.26c0-1.53-0.87-2.33-2.33-2.33h-5.98v6.42h5.98
		c1.46,0,2.33-0.8,2.33-2.33V99.26z"/>
	<path class="st0" d="M537.38,114.32l-7.05-16.02v16.02h-2.33V94.6h3.26l7.05,16.06V94.6h2.33v19.71H537.38z"/>
</g>
</svg>
